<svg width="15" height="15" viewBox="0 0 15 15" fill="none" xmlns="http://www.w3.org/2000/svg">
<path d="M14.1 0H4.5C4.26131 0 4.03239 0.0948212 3.8636 0.263604C3.69482 0.432387 3.6 0.661305 3.6 0.9V3.6H0.9C0.661305 3.6 0.432387 3.69482 0.263604 3.8636C0.0948212 4.03239 0 4.26131 0 4.5V14.1C0 14.3387 0.0948212 14.5676 0.263604 14.7364C0.432387 14.9052 0.661305 15 0.9 15H10.5C10.7387 15 10.9676 14.9052 11.1364 14.7364C11.3052 14.5676 11.4 14.3387 11.4 14.1V11.4H14.1C14.3387 11.4 14.5676 11.3052 14.7364 11.1364C14.9052 10.9676 15 10.7387 15 10.5V0.9C15 0.661305 14.9052 0.432387 14.7364 0.263604C14.5676 0.0948212 14.3387 0 14.1 0ZM9.6 13.2H1.8V5.4H9.6V13.2ZM13.2 9.6H11.4V4.5C11.4 4.26131 11.3052 4.03239 11.1364 3.8636C10.9676 3.69482 10.7387 3.6 10.5 3.6H5.4V1.8H13.2V9.6Z" fill="#70FC4D"/>
</svg>
